{
    "asset" : {
        "generator" : "Khronos glTF Blender I/O v3.3.32",
        "version" : "2.0"
    },
    "extensionsUsed" : [
        "KHR_lights_punctual"
    ],
    "extensionsRequired" : [
        "KHR_lights_punctual"
    ],
    "extensions" : {
        "KHR_lights_punctual" : {
            "lights" : [
                {
                    "color" : [
                        1,
                        1,
                        1
                    ],
                    "intensity" : 221.6999969482422,
                    "spot" : {
                        "innerConeAngle" : 0.556323685321221,
                        "outerConeAngle" : 0.6544984579086304
                    },
                    "type" : "spot",
                    "name" : "Light"
                }
            ]
        }
    },
    "scene" : 0,
    "scenes" : [
        {
            "extras" : {
                "recast_navmesh" : {}
            },
            "name" : "Scene",
            "nodes" : [
                0,
                1,
                2
            ]
        }
    ],
    "nodes" : [
        {
            "extensions" : {
                "KHR_lights_punctual" : {
                    "light" : 0
                }
            },
            "name" : "Light",
            "rotation" : [
                -0.2841663062572479,
                0.7269423604011536,
                0.34203392267227173,
                0.5232754349708557
            ],
            "translation" : [
                4.076245307922363,
                5.903861999511719,
                -1.0054539442062378
            ]
        },
        {
            "camera" : 0,
            "name" : "Camera",
            "rotation" : [
                -0.20997299253940582,
                0.3857799470424652,
                0.09062844514846802,
                0.8937962055206299
            ],
            "translation" : [
                3.6817448139190674,
                3.176908254623413,
                3.4596471786499023
            ]
        },
        {
            "mesh" : 0,
            "name" : "bunny",
            "rotation" : [
                0.5042632818222046,
                0.4957001209259033,
                -0.4957002103328705,
                0.504263162612915
            ],
            "scale" : [
                11.551613807678223,
                11.551613807678223,
                11.551612854003906
            ],
            "translation" : [
                0.010694896802306175,
                0,
                -0.6244070529937744
            ]
        }
    ],
    "cameras" : [
        {
            "name" : "Camera",
            "perspective" : {
                "aspectRatio" : 1.7777777777777777,
                "yfov" : 0.39959652046304894,
                "zfar" : 100,
                "znear" : 0.10000000149011612
            },
            "type" : "perspective"
        }
    ],
    "meshes" : [
        {
            "name" : "bunny",
            "primitives" : [
                {
                    "attributes" : {
                        "POSITION" : 0,
                        "NORMAL" : 1,
                        "TEXCOORD_0" : 2
                    },
                    "indices" : 3
                }
            ]
        }
    ],
    "accessors" : [
        {
            "bufferView" : 0,
            "componentType" : 5126,
            "count" : 7450,
            "max" : [
                0.06873875111341476,
                0.04822099953889847,
                0.00048617273569107056
            ],
            "min" : [
                -0.08642047643661499,
                -0.07217280566692352,
                -0.1531999409198761
            ],
            "type" : "VEC3"
        },
        {
            "bufferView" : 1,
            "componentType" : 5126,
            "count" : 7450,
            "type" : "VEC3"
        },
        {
            "bufferView" : 2,
            "componentType" : 5126,
            "count" : 7450,
            "type" : "VEC2"
        },
        {
            "bufferView" : 3,
            "componentType" : 5123,
            "count" : 15006,
            "type" : "SCALAR"
        }
    ],
    "bufferViews" : [
        {
            "buffer" : 0,
            "byteLength" : 89400,
            "byteOffset" : 0,
            "target" : 34962
        },
        {
            "buffer" : 0,
            "byteLength" : 89400,
            "byteOffset" : 89400,
            "target" : 34962
        },
        {
            "buffer" : 0,
            "byteLength" : 59600,
            "byteOffset" : 178800,
            "target" : 34962
        },
        {
            "buffer" : 0,
            "byteLength" : 30012,
            "byteOffset" : 238400,
            "target" : 34963
        }
    ],
    "buffers" : [
        {
            "byteLength" : 268412,
            "uri" : "data:application/octet-stream;base64,"
        }
    ]
}
